<?xml version="1.0" encoding="utf-8"?>
<!-- Generator: Adobe Illustrator 16.0.0, SVG Export Plug-In . SVG Version: 6.00 Build 0)  -->
<!DOCTYPE svg PUBLIC "-//W3C//DTD SVG 1.1//EN" "http://www.w3.org/Graphics/SVG/1.1/DTD/svg11.dtd">
<svg version="1.1" id="Layer_1" xmlns="http://www.w3.org/2000/svg" xmlns:xlink="http://www.w3.org/1999/xlink" x="0px" y="0px"
	 width="915.68px" height="315.625px" viewBox="0 0 915.68 315.625" enable-background="new 0 0 915.68 315.625"
	 xml:space="preserve">
<path fill="#FFFFFF" d="M907.894,114.463c-18.349-2.004-36.798-3.192-54.748-4.697c-4.149,12.79-4.149,12.79-12.657,11.554
	c-2.658-4.854-3.934-11.167-7.307-12.611c-12.744-5.521-20.753-15.084-27.439-26.565C773.799,27.316,725.847-1.745,662.604,0.081
	c-63.692,1.858-110.188,33.686-138.709,90.994c-4.466,8.957-8.118,18.352-12.912,27.138c-1.906,3.472-5.898,5.8-8.945,8.653
	c-2.051-3.29-5.183-6.335-5.984-9.917c-2.863-13.009-11.346-18.567-23.762-19.441c-6.651-0.475-13.363-0.729-20.037-0.583
	c-21.906,0.522-25.27,3.058-33.436,23.351c-0.996,2.512-3.885,6.528-5.025,6.262c-2.816-0.655-6.044-2.948-7.428-5.485
	c-4.441-8.131-8.168-16.664-12.075-25.073c-27.538-59.227-73.9-93.1-138.987-95.805c-65.1-2.695-113.84,27.354-146.621,83.862
	c-4.842,8.35-12.294,16.322-20.475,21.264c-6.918,4.188-11.99,7.366-10.836,15.752c-11.058,1.529-11.058,1.529-14.529-11.117
	c-17.379,1.263-35.073,2.501-52.744,3.872c-10.778,0.85-9.83,8.907-10.087,16.469c-0.327,9.272,6.688,6.312,11.567,7.743
	c11.868,3.507,29.006-5.656,34.442,13.934c0.194,0.716,1.919,1.577,2.815,1.467c15.365-1.783,25.27,5.062,30.803,19.115
	c0.219,0.583,1.08,0.997,1.723,1.337c8.691,4.551,11.957,12.416,14.225,21.456c17.865,70.975,80.246,119.98,152.774,120.297
	c71.69,0.316,134.558-48.327,153.514-118.258c2.403-8.799,5.729-18.181,11.36-25.073c6.82-8.374,11.627-16.724,13.532-27.283
	c1.845-10.243,9.866-14.32,18.97-13.472c14.297,1.347,31.119-6.821,41.871,9.588c1.553,2.379,1.771,5.632,2.791,8.41
	c1.882,5.146,3.472,10.449,5.936,15.317c5.812,11.37,12.392,22.367,18.059,33.799c8.508,17.161,13.957,36.459,25.184,51.483
	c37.537,50.27,88.791,72.334,151.148,63.28c56.918-8.278,96.703-41.217,121.241-92.627c8.375-17.55,7.49-39.855,26.919-51.701
	c0.548-0.315,0.862-1.238,1.033-1.929c2.717-11.555,11.457-12.854,21.348-13.483c3.592-0.219,7.063-3.472,10.412-5.607
	c4.225-2.67,7.938-6.979,12.477-8.133c7.1-1.796,14.722-1.771,22.137-2.05c5.293-0.206,10.014-0.522,9.321-7.561
	C915.005,124.111,917.785,115.543,907.894,114.463z M249.088,302.444c-79.857,0.073-144.643-64.275-145.213-144.278
	c-0.57-79.434,64.628-145.257,144.061-145.408c80.708-0.17,145.443,64.264,145.516,144.813
	C393.524,237.514,328.897,302.347,249.088,302.444z M666.681,302.395c-79.505-0.048-144.364-64.917-144.46-144.472
	c-0.072-79.907,64.492-144.971,144.035-145.165c80.404-0.206,145.772,64.724,145.735,144.753
	C811.966,237.611,746.939,302.444,666.681,302.395z"/>
</svg>
